<?xml version="1.0" standalone="no"?>
<!DOCTYPE svg PUBLIC "-//W3C//DTD SVG 20010904//EN"
 "http://www.w3.org/TR/2001/REC-SVG-20010904/DTD/svg10.dtd">
<svg version="1.0" xmlns="http://www.w3.org/2000/svg"
 width="1269.000000pt" height="1269.000000pt" viewBox="0 0 1269.000000 1269.000000"
 preserveAspectRatio="xMidYMid meet">
<metadata>
Created by potrace 1.14, written by Peter Selinger 2001-2017
</metadata>
<g transform="translate(0.000000,1269.000000) scale(0.100000,-0.100000)"
fill="#000000" stroke="none">
<path d="M6235 12630 c-75 -17 -90 -20 -120 -26 -16 -3 -70 -14 -120 -25 -49
-11 -101 -22 -115 -25 -152 -30 -597 -152 -915 -252 -505 -158 -1203 -429
-1750 -680 -71 -32 -157 -72 -190 -87 -88 -40 -692 -341 -750 -373 -27 -16
-84 -47 -125 -69 -215 -116 -268 -146 -540 -309 -303 -181 -481 -302 -505
-344 -18 -33 -20 -52 -18 -295 3 -322 10 -561 28 -905 10 -190 14 -264 20
-330 3 -36 7 -92 10 -125 4 -58 13 -169 20 -250 5 -59 15 -165 20 -205 2 -19
7 -60 10 -90 10 -95 25 -222 30 -260 2 -14 6 -50 10 -80 4 -30 8 -66 10 -80 2
-14 6 -45 10 -70 3 -25 8 -56 10 -70 3 -14 7 -41 9 -60 3 -19 10 -66 16 -105
6 -38 13 -81 15 -95 2 -14 6 -43 10 -65 3 -23 7 -50 9 -60 8 -43 39 -221 41
-240 4 -29 64 -333 75 -380 5 -22 26 -114 46 -205 20 -91 45 -201 56 -245 20
-84 33 -136 41 -170 29 -120 135 -497 177 -630 222 -704 408 -1174 684 -1735
149 -303 385 -709 579 -1000 79 -118 239 -342 264 -370 13 -14 23 -28 23 -32
0 -3 6 -13 13 -20 6 -7 65 -79 129 -159 64 -80 156 -191 204 -245 148 -168
505 -518 654 -640 19 -16 37 -31 40 -34 6 -8 114 -96 164 -135 21 -16 44 -34
50 -40 49 -44 316 -235 456 -326 263 -171 608 -363 865 -479 28 -13 79 -36
115 -53 258 -117 336 -139 395 -113 11 5 22 10 25 11 3 1 22 9 44 18 21 9 40
17 42 17 5 0 165 70 244 107 597 278 1178 650 1600 1027 465 414 740 715 1072
1169 95 130 378 558 378 572 0 2 13 23 29 47 28 42 106 175 168 288 85 154
131 239 151 280 12 25 46 91 76 148 29 57 54 105 55 108 1 2 22 48 47 101 65
138 97 207 132 288 39 90 142 345 147 365 2 8 20 58 40 110 137 360 321 950
421 1349 52 207 69 279 94 396 17 77 37 167 45 200 13 57 30 137 41 201 3 16
7 36 9 44 3 8 7 32 11 54 6 43 10 60 18 96 6 26 9 42 26 145 5 33 12 71 15 85
3 14 8 45 11 70 3 25 7 52 9 60 3 8 12 62 20 120 9 58 18 116 20 130 2 14 6
45 10 70 3 25 8 56 10 70 2 14 7 48 10 75 5 52 14 122 21 164 2 14 6 54 10 90
3 36 8 73 9 84 2 10 7 53 11 95 3 42 8 86 10 97 2 11 6 52 9 90 3 39 7 86 10
105 2 19 7 73 10 120 4 47 8 105 10 130 13 147 32 480 41 705 2 50 6 260 10
467 8 457 13 432 -124 526 -187 128 -594 375 -822 500 -253 139 -494 263 -830
427 -186 91 -598 275 -805 360 -44 18 -120 50 -170 70 -398 165 -957 360
-1405 492 -278 82 -773 204 -920 227 -19 3 -46 8 -60 12 -46 11 -155 13 -195
4z"/>
</g>
</svg>
